<svg xmlns="http://www.w3.org/2000/svg" width="200" height="50" viewBox="0 0 200 50"><path d="M82.62,36.55a.5.5,0,0,1-.07.27.51.51,0,0,1-.22.18,2.51,2.51,0,0,1-.43.1,3.9,3.9,0,0,1-.64,0,4.16,4.16,0,0,1-.66,0,2.51,2.51,0,0,1-.43-.1.56.56,0,0,1-.25-.18.5.5,0,0,1-.07-.27V34.31a11.41,11.41,0,0,1-2.79,2.26,6.33,6.33,0,0,1-3.16.81,6.55,6.55,0,0,1-3.18-.72,6.14,6.14,0,0,1-2.15-2,8.86,8.86,0,0,1-1.19-2.91A16,16,0,0,1,67,28.27a15.5,15.5,0,0,1,.47-3.95,8.82,8.82,0,0,1,1.4-3,6.12,6.12,0,0,1,2.29-1.91,7,7,0,0,1,3.16-.67,5.66,5.66,0,0,1,2.72.65,9.62,9.62,0,0,1,2.45,1.91V11.43a.58.58,0,0,1,.06-.26.49.49,0,0,1,.26-.19,2.89,2.89,0,0,1,.48-.11,4.86,4.86,0,0,1,.74,0,5.35,5.35,0,0,1,.78,0,2.53,2.53,0,0,1,.47.11.55.55,0,0,1,.25.19.43.43,0,0,1,.09.26ZM79.49,24.61A12,12,0,0,0,77,22.23a4.2,4.2,0,0,0-2.46-.82,3.5,3.5,0,0,0-2,.56,4.38,4.38,0,0,0-1.34,1.49,7.17,7.17,0,0,0-.76,2.1,11.76,11.76,0,0,0-.23,2.37,16,16,0,0,0,.19,2.51,7.64,7.64,0,0,0,.69,2.18,4.23,4.23,0,0,0,1.3,1.53,3.46,3.46,0,0,0,2,.57,4,4,0,0,0,1.2-.17A4.49,4.49,0,0,0,76.83,34a9.71,9.71,0,0,0,1.26-1,15.15,15.15,0,0,0,1.4-1.56Zm22,12a.39.39,0,0,1-.15.34,1,1,0,0,1-.41.17,3.83,3.83,0,0,1-.78.06,4,4,0,0,1-.78-.06.91.91,0,0,1-.43-.17.44.44,0,0,1-.13-.34v-1.7a8.25,8.25,0,0,1-2.48,1.85,6.58,6.58,0,0,1-2.89.66A7.67,7.67,0,0,1,91,37a5.25,5.25,0,0,1-1.85-1A4.61,4.61,0,0,1,88,34.4a5.41,5.41,0,0,1-.42-2.19,5.09,5.09,0,0,1,.59-2.49A5,5,0,0,1,89.79,28a8.38,8.38,0,0,1,2.68-1A16.88,16.88,0,0,1,96,26.57h2.34V25.25a6.45,6.45,0,0,0-.21-1.73,3.05,3.05,0,0,0-.67-1.26,2.93,2.93,0,0,0-1.2-.75,5.55,5.55,0,0,0-1.81-.26,7.23,7.23,0,0,0-2.06.28,10.93,10.93,0,0,0-1.61.6,12.82,12.82,0,0,0-1.15.61A1.62,1.62,0,0,1,89,23a.45.45,0,0,1-.26-.08.62.62,0,0,1-.2-.22,1,1,0,0,1-.12-.39,2.82,2.82,0,0,1,0-.52,2.93,2.93,0,0,1,.07-.74,1,1,0,0,1,.32-.52,3.89,3.89,0,0,1,.87-.58,9.76,9.76,0,0,1,1.44-.6,13.43,13.43,0,0,1,1.77-.45,11.44,11.44,0,0,1,5.06.23A5,5,0,0,1,100,20.36a4.69,4.69,0,0,1,1.15,2,9.59,9.59,0,0,1,.36,2.77Zm-3.09-7.75H95.72a9.72,9.72,0,0,0-2.23.22,4.29,4.29,0,0,0-1.56.64,2.62,2.62,0,0,0-.92,1,3.09,3.09,0,0,0-.29,1.36,2.75,2.75,0,0,0,.84,2.11,3.32,3.32,0,0,0,2.35.78,4.43,4.43,0,0,0,2.27-.62,9.86,9.86,0,0,0,2.2-1.91Zm22.39-9.28v.16l0,.18c0,.06,0,.13,0,.21s0,.15-.07.24l-5.79,16.13a1,1,0,0,1-.19.34.88.88,0,0,1-.37.21,3.08,3.08,0,0,1-.63.1c-.25,0-.56,0-.94,0a8.23,8.23,0,0,1-.94,0,3.38,3.38,0,0,1-.61-.11.82.82,0,0,1-.37-.21,1,1,0,0,1-.21-.32L104.8,20.33c0-.15-.09-.28-.12-.4a.79.79,0,0,1-.06-.25.76.76,0,0,1,0-.14.5.5,0,0,1,.07-.27.6.6,0,0,1,.26-.18,1.82,1.82,0,0,1,.47-.08l.73,0q.54,0,.87,0a1.83,1.83,0,0,1,.51.1.72.72,0,0,1,.27.19,2.32,2.32,0,0,1,.16.28l4.79,14,.07.23.06-.23,4.74-14a.56.56,0,0,1,.13-.28.72.72,0,0,1,.27-.19,1.74,1.74,0,0,1,.49-.1c.21,0,.48,0,.82,0l.72,0a1.16,1.16,0,0,1,.44.09.56.56,0,0,1,.23.18A.53.53,0,0,1,120.77,19.54Zm7.31-5.7a2.07,2.07,0,0,1-.41,1.49,2.21,2.21,0,0,1-1.53.4,2.18,2.18,0,0,1-1.5-.39,2,2,0,0,1-.41-1.46,2,2,0,0,1,.42-1.49,3.1,3.1,0,0,1,3,0A2,2,0,0,1,128.08,13.84Zm-.36,22.71a.44.44,0,0,1-.07.26.56.56,0,0,1-.25.18,1.92,1.92,0,0,1-.47.11,5.5,5.5,0,0,1-.77,0,5.44,5.44,0,0,1-.76,0,2.14,2.14,0,0,1-.48-.11.47.47,0,0,1-.24-.18.44.44,0,0,1-.07-.26v-17a.45.45,0,0,1,.07-.25.48.48,0,0,1,.24-.19,1.7,1.7,0,0,1,.48-.11,5.44,5.44,0,0,1,.76,0,5.5,5.5,0,0,1,.77,0,1.55,1.55,0,0,1,.47.11.57.57,0,0,1,.25.19.45.45,0,0,1,.07.25Zm21.69-8.75a15.32,15.32,0,0,1-.49,4,8.74,8.74,0,0,1-1.41,3,6.25,6.25,0,0,1-2.31,1.9,7.08,7.08,0,0,1-3.15.67,6.2,6.2,0,0,1-1.4-.15,5.6,5.6,0,0,1-1.25-.47,6.79,6.79,0,0,1-1.22-.81c-.4-.33-.83-.71-1.28-1.15v8.49a.45.45,0,0,1-.08.26.52.52,0,0,1-.24.19,1.63,1.63,0,0,1-.47.11,5.57,5.57,0,0,1-.78,0,5.28,5.28,0,0,1-.75,0,1.7,1.7,0,0,1-.48-.11.5.5,0,0,1-.25-.19.53.53,0,0,1-.06-.26V19.58a.7.7,0,0,1,.05-.28.49.49,0,0,1,.23-.18,1.51,1.51,0,0,1,.43-.1,5.85,5.85,0,0,1,.64,0,5.67,5.67,0,0,1,.65,0,1.51,1.51,0,0,1,.43.1.49.49,0,0,1,.23.18.47.47,0,0,1,.07.28v2.28A18.18,18.18,0,0,1,138,20.48a9.33,9.33,0,0,1,1.44-1,6.85,6.85,0,0,1,1.49-.58,6.1,6.1,0,0,1,1.62-.2,6.54,6.54,0,0,1,3.15.71,6,6,0,0,1,2.12,2A8.64,8.64,0,0,1,149,24.3,15.78,15.78,0,0,1,149.41,27.8Zm-3.23.36a15.88,15.88,0,0,0-.2-2.52,7.3,7.3,0,0,0-.68-2.16A4.17,4.17,0,0,0,144,22a3.47,3.47,0,0,0-2-.56,4.4,4.4,0,0,0-1.2.17,5,5,0,0,0-1.2.57,9.44,9.44,0,0,0-1.27,1,15.15,15.15,0,0,0-1.4,1.56v6.75a13.51,13.51,0,0,0,2.45,2.39,4.06,4.06,0,0,0,2.43.83,3.54,3.54,0,0,0,2-.56,4.22,4.22,0,0,0,1.36-1.51,7.35,7.35,0,0,0,.77-2.11A11.07,11.07,0,0,0,146.18,28.16Zm11.33,8.39a.45.45,0,0,1-.08.26.56.56,0,0,1-.25.18,1.92,1.92,0,0,1-.47.11,7.34,7.34,0,0,1-1.53,0,2.14,2.14,0,0,1-.48-.11.47.47,0,0,1-.24-.18.44.44,0,0,1-.07-.26V11.35a.44.44,0,0,1,.07-.26.44.44,0,0,1,.24-.19,1.7,1.7,0,0,1,.48-.11,7.34,7.34,0,0,1,1.53,0,1.55,1.55,0,0,1,.47.11.5.5,0,0,1,.25.19.45.45,0,0,1,.08.26Zm18.85,0a.39.39,0,0,1-.15.34,1.09,1.09,0,0,1-.42.17,3.72,3.72,0,0,1-.77.06,4.16,4.16,0,0,1-.79-.06.92.92,0,0,1-.42-.17.41.41,0,0,1-.13-.34v-1.7a8.25,8.25,0,0,1-2.48,1.85,6.59,6.59,0,0,1-2.9.66,7.65,7.65,0,0,1-2.42-.35A5.16,5.16,0,0,1,164,36a4.49,4.49,0,0,1-1.19-1.62,5.41,5.41,0,0,1-.42-2.19,5.09,5.09,0,0,1,.58-2.49A4.92,4.92,0,0,1,164.68,28a8.29,8.29,0,0,1,2.68-1,16.71,16.71,0,0,1,3.56-.35h2.34V25.25a6.45,6.45,0,0,0-.21-1.73,3,3,0,0,0-.66-1.26,2.93,2.93,0,0,0-1.2-.75,5.59,5.59,0,0,0-1.81-.26,7.3,7.3,0,0,0-2.07.28,10.78,10.78,0,0,0-1.6.6,12.82,12.82,0,0,0-1.15.61,1.62,1.62,0,0,1-.69.27.5.5,0,0,1-.27-.08.6.6,0,0,1-.19-.22,1.19,1.19,0,0,1-.13-.39,4.17,4.17,0,0,1,0-.52,3.6,3.6,0,0,1,.06-.74,1.07,1.07,0,0,1,.32-.52,3.77,3.77,0,0,1,.88-.58,9.19,9.19,0,0,1,1.43-.6,13.59,13.59,0,0,1,1.78-.45,10.53,10.53,0,0,1,1.94-.18,10.37,10.37,0,0,1,3.11.41,5,5,0,0,1,2.08,1.22,4.69,4.69,0,0,1,1.15,2,9.59,9.59,0,0,1,.36,2.77Zm-3.1-7.75H170.6a9.69,9.69,0,0,0-2.22.22,4.42,4.42,0,0,0-1.57.64,2.6,2.6,0,0,0-.91,1,3,3,0,0,0-.3,1.36,2.75,2.75,0,0,0,.84,2.11,3.33,3.33,0,0,0,2.35.78,4.44,4.44,0,0,0,2.28-.62,9.83,9.83,0,0,0,2.19-1.91ZM197,36.55a.45.45,0,0,1-.08.26.58.58,0,0,1-.24.18,1.92,1.92,0,0,1-.47.11,5.35,5.35,0,0,1-.76,0,5.5,5.5,0,0,1-.77,0,1.92,1.92,0,0,1-.47-.11.62.62,0,0,1-.25-.18.44.44,0,0,1-.07-.26V26.61a9.79,9.79,0,0,0-.23-2.34,4.85,4.85,0,0,0-.66-1.53,2.94,2.94,0,0,0-1.12-1,3.66,3.66,0,0,0-1.6-.34,4,4,0,0,0-2.33.83,13,13,0,0,0-2.46,2.44V36.55a.44.44,0,0,1-.07.26.56.56,0,0,1-.25.18,1.92,1.92,0,0,1-.47.11,5.5,5.5,0,0,1-.77,0,5.44,5.44,0,0,1-.76,0,2.14,2.14,0,0,1-.48-.11.47.47,0,0,1-.24-.18.44.44,0,0,1-.07-.26v-17a.45.45,0,0,1,.28-.45,1.57,1.57,0,0,1,.44-.11,7.95,7.95,0,0,1,1.38,0,1.27,1.27,0,0,1,.43.11.7.7,0,0,1,.22.19.53.53,0,0,1,.06.26v2.24a10.55,10.55,0,0,1,2.86-2.35,6.23,6.23,0,0,1,2.88-.74,6.4,6.4,0,0,1,2.85.57,5.2,5.2,0,0,1,1.88,1.54,6.11,6.11,0,0,1,1,2.25A13.38,13.38,0,0,1,197,26.2Z"/><path d="M11.44,19.59,3,27.76l.76,12.72,10.64,7,11.29-3.23L13.63,34.79Z" fill="#bf600c"/><path d="M39.94,19.59l8.45,8.17-.77,12.72L37,47.5l-11.3-3.23,12.07-9.48Z" fill="#48553d"/><path d="M11.45,19.59,14.3,8.2,25.7,2.5,37.09,8.2l2.85,11.39L25.7,13.89Z" fill="#497ed2"/></svg>